<mxfile host="app.diagrams.net" agent="Mozilla/5.0 (Windows NT 10.0; Win64; x64) AppleWebKit/537.36 (KHTML, like Gecko) Chrome/134.0.0.0 Safari/537.36" version="26.1.3">
  <diagram name="Página-1" id="HsXEhWT_enptY0NSik1j">
    <mxGraphModel dx="794" dy="412" grid="1" gridSize="10" guides="1" tooltips="1" connect="1" arrows="1" fold="1" page="1" pageScale="1" pageWidth="827" pageHeight="1169" math="0" shadow="0">
      <root>
        <mxCell id="0" />
        <mxCell id="1" parent="0" />
        <mxCell id="1pnyyoBgI_MgI9aC_AIl-1" value="&lt;b&gt;&lt;font face=&quot;Comic Sans MS&quot;&gt;Diagrama de Arquitetura Spring Pet Clinic&lt;/font&gt;&lt;/b&gt;" style="rounded=0;whiteSpace=wrap;html=1;" vertex="1" parent="1">
          <mxGeometry x="240" y="30" width="350" height="60" as="geometry" />
        </mxCell>
        <mxCell id="1pnyyoBgI_MgI9aC_AIl-7" value="" style="edgeStyle=orthogonalEdgeStyle;rounded=0;orthogonalLoop=1;jettySize=auto;html=1;" edge="1" parent="1" source="1pnyyoBgI_MgI9aC_AIl-2" target="1pnyyoBgI_MgI9aC_AIl-6">
          <mxGeometry relative="1" as="geometry" />
        </mxCell>
        <mxCell id="1pnyyoBgI_MgI9aC_AIl-2" value="Costumer&lt;div&gt;&lt;span style=&quot;background-color: transparent; color: light-dark(rgb(0, 0, 0), rgb(255, 255, 255));&quot;&gt;Service&lt;/span&gt;&lt;/div&gt;" style="triangle;whiteSpace=wrap;html=1;" vertex="1" parent="1">
          <mxGeometry x="172" y="130" width="110" height="120" as="geometry" />
        </mxCell>
        <mxCell id="1pnyyoBgI_MgI9aC_AIl-16" value="" style="edgeStyle=orthogonalEdgeStyle;rounded=0;orthogonalLoop=1;jettySize=auto;html=1;" edge="1" parent="1" source="1pnyyoBgI_MgI9aC_AIl-6" target="1pnyyoBgI_MgI9aC_AIl-15">
          <mxGeometry relative="1" as="geometry" />
        </mxCell>
        <mxCell id="1pnyyoBgI_MgI9aC_AIl-6" value="Vet Service" style="ellipse;whiteSpace=wrap;html=1;" vertex="1" parent="1">
          <mxGeometry x="357" y="150" width="80" height="80" as="geometry" />
        </mxCell>
        <mxCell id="1pnyyoBgI_MgI9aC_AIl-8" value="Cadastro de clientes/pets" style="rounded=1;whiteSpace=wrap;html=1;" vertex="1" parent="1">
          <mxGeometry x="167" y="260" width="120" height="60" as="geometry" />
        </mxCell>
        <mxCell id="1pnyyoBgI_MgI9aC_AIl-12" value="Cadastro de veterinários e especialidades" style="rounded=1;whiteSpace=wrap;html=1;" vertex="1" parent="1">
          <mxGeometry x="337" y="260" width="120" height="60" as="geometry" />
        </mxCell>
        <mxCell id="1pnyyoBgI_MgI9aC_AIl-15" value="Visit Services" style="whiteSpace=wrap;html=1;" vertex="1" parent="1">
          <mxGeometry x="516" y="145" width="120" height="90" as="geometry" />
        </mxCell>
        <mxCell id="1pnyyoBgI_MgI9aC_AIl-17" value="Registros de visitas&lt;div&gt;data - hora - cliente&lt;/div&gt;" style="rounded=1;whiteSpace=wrap;html=1;" vertex="1" parent="1">
          <mxGeometry x="516" y="260" width="120" height="60" as="geometry" />
        </mxCell>
      </root>
    </mxGraphModel>
  </diagram>
</mxfile>
